<?xml version="1.0" encoding="utf-8"?>
<!-- Generator: Adobe Illustrator 21.1.0, SVG Export Plug-In . SVG Version: 6.00 Build 0)  -->
<svg version="1.1" id="Layer_1" xmlns="http://www.w3.org/2000/svg" xmlns:xlink="http://www.w3.org/1999/xlink" x="0px" y="0px" viewBox="0 0 689.3 186.5" style="enable-background:new 0 0 689.3 186.5;" xml:space="preserve">
  <style type="text/css">
	.st0{fill:#582D83;}
	.st1{fill:#A7A9AC;}
	.st2{fill:#FFFFFF;}
</style>
  <rect x="-9.1" y="-6.5" class="st0" width="704.7" height="200.7" />
  <g>
    <path class="st1" d="M94.7,139.7l12.7-27.4h3.4l12.7,27.4h-4l-3.7-8.2h-13.7l-3.7,8.2H94.7z M103.4,128.5h11.1l-5.4-12h-0.3
		L103.4,128.5z" />
    <path class="st1" d="M154.4,112.3v27.4h-3.3l-17.4-21h0v21H130v-27.4h3.3l17.4,21h0v-21H154.4z" />
    <path class="st1" d="M160.9,139.7l12.7-27.4h3.4l12.7,27.4h-4l-3.7-8.2h-13.7l-3.7,8.2H160.9z M169.7,128.5h11.1l-5.4-12h-0.3
		L169.7,128.5z" />
    <path class="st1" d="M199.9,112.3v24.2h17.3v3.2h-21v-27.4H199.9z" />
    <path class="st1" d="M241.8,112.3l-11.3,14.6v12.9h-3.7v-12.9l-11.3-14.6h4.6l8.6,11.3l8.7-11.3H241.8z" />
    <path class="st1" d="M244.2,112.3h25v3.2h-10.6v24.2h-3.7v-24.2h-10.7V112.3z" />
    <path class="st1" d="M275.5,139.7v-27.4h3.7v27.4H275.5z" />
    <path class="st1" d="M315.1,134.9c-3,2.9-7.5,5.5-13.1,5.5c-8.9,0-15.1-6.5-15.1-14.5c0-7.9,6.2-14.4,14.9-14.4
		c4.9,0,9.5,1.9,12.6,4.7l-2.5,2.4c-2.5-2.4-6.4-3.9-10-3.9c-6.6,0-11.2,5.1-11.2,11.2c0,6.2,4.7,11.2,11.3,11.2
		c4.4,0,8.1-2,10.7-4.6L315.1,134.9z" />
    <path class="st1" d="M341.6,118c-1.6-1.5-5.1-3.4-10.2-3.4c-3.5,0-7.1,1.3-7.1,4.7c0,3.5,4.5,3.7,9,3.9c4.8,0.3,12.5,0.8,12.5,8.1
		c0,6.4-5.7,8.9-12.3,8.9c-7,0-11.4-2.9-14.4-5.6l2.2-2.5c2.3,2.1,6.1,5,12.3,5c4.7,0,8.5-1.7,8.5-5.4c0-4.1-4.2-4.7-8.9-5.1
		c-5.9-0.4-12.6-0.8-12.6-7.1c0-6.3,6-8.1,10.9-8.1c5.7,0,10.1,2.3,12.2,4L341.6,118z" />
  </g>
  <path class="st2" d="M378.3,95.5c-13.8,0-25-11.2-25-25s11.2-25,25-25s25,11.2,25,25S392.1,95.5,378.3,95.5z M394,70.5
	c0-8.7-7-15.7-15.7-15.7s-15.7,7-15.7,15.7s7,15.7,15.7,15.7S394,79.2,394,70.5z" />
  <path class="st2" d="M134.4,74.9h-28.9v10.2h28.9V94H95.2V47h39.2v8.9h-28.9v10.1h28.9V74.9z" />
  <path class="st2" d="M195.7,47v47h-8.9l-23.9-29.1h-0.1V94h-10.4V47h8.9l24,29.2h0.1V47H195.7z" />
  <path class="st2" d="M258.3,47l-21.8,47h-8.9l-21.8-47h11.7L232,81.1h0.4L247.1,47H258.3z" />
  <path class="st2" d="M270.4,94V47h10.3v47H270.4z" />
  <path class="st2" d="M297.5,94V47h26.1c6.7,0,11.1,1.9,14.1,5.1c2.4,2.6,3.9,6,3.9,9.7c0,6-3.7,10.7-9.5,13.2l11,18.9h-11.8
	l-9.5-17.3h-14V94H297.5z M307.8,55.7V68h16.8c3.6,0,6.6-2.6,6.6-6.2c0-1.6-0.6-3-1.7-4.1c-1.7-1.8-3.7-2-5.6-2H307.8z" />
  <path class="st2" d="M459.1,47v47h-8.9l-23.9-29.1h-0.1V94h-10.4V47h8.9l24,29.2h0.1V47H459.1z" />
  <path class="st2" d="M476.9,94V47h10.3v47H476.9z" />
  <path class="st2" d="M525.7,86.2c-8.7,0-15.7-7-15.7-15.7s7-15.7,15.7-15.7c5.5,0,10.3,2.8,13.1,7.1l6.6-6.6
	c-4.6-5.9-11.7-9.7-19.8-9.7c-13.8,0-25,11.2-25,25s11.2,25,25,25c8.1,0,15.2-3.8,19.8-9.7l-6.6-6.6C536,83.4,531.2,86.2,525.7,86.2
	z" />
  <path class="st2" d="M577.5,65.8c-7-1.4-10.1-2.7-10.1-6.3c0-3.3,2.6-5,7.7-5c4.7,0,9.1,1.4,12.1,3.7l0.8,0.6l5.8-7.2L593,51
	c-4.7-3.8-10.4-5.6-18-5.6c-10.5,0-17.3,5.6-17.3,14.2c0,11.3,10.2,13.3,17.7,14.8c6.8,1.4,10,2.7,10,6.5c0,3.7-3.1,5.5-9.2,5.5
	c-6.6,0-11.2-1.9-14.4-6l-0.6-0.8l-7,5.8l0.6,0.8c4.6,6,11.9,9.1,21.6,9.1c11.1,0,18.6-5.9,18.6-14.6
	C595,69.2,584.9,67.2,577.5,65.8z" />
</svg>