<svg xmlns="http://www.w3.org/2000/svg" width="272" height="77.752" viewBox="0 0 272 77.752"><g id="Group_291" data-name="Group 291" transform="translate(-.411 428)"><g id="Group_3" data-name="Group 3" transform="translate(.411 -428)"><path id="Path_4" data-name="Path 4" d="M.411-428v77.751l39.776-38.875L79.963-428z" transform="translate(-.411 428)" fill="#c1d42f"/><path id="Path_5" data-name="Path 5" d="M.411-226.221h79.552l-39.776-39.774z" transform="translate(-.411 303.973)" fill="#5ab88d"/><path id="Path_6" data-name="Path 6" d="M.411-226.221l43.621-35.928-3.846-3.845z" transform="translate(-.411 303.973)" fill="#016939"/></g><g id="Group_5" data-name="Group 5" transform="translate(73.604 -407.814)" fill="#2b328c"><g id="Group_4" data-name="Group 4" transform="translate(26.032)"><path id="Path_7" data-name="Path 7" d="M452.224-291.293c0-5.9-3.44-9.522-8.435-9.522-4.949 0-8.342 3.581-8.342 9.522 0 5.983 3.393 9.566 8.435 9.566 4.949 0 8.342-3.63 8.342-9.566m-22.056 0c0-9.287 5.655-14 12.349-14 4.242 0 8.011 2.072 9.566 5.8v-5.281h5.279v26.913h-5.279v-5.091c-1.507 3.63-5.324 5.753-9.519 5.753-6.694 0-12.4-4.763-12.4-14.092" transform="translate(-430.168 314.341)"/><path id="Rectangle_2" data-name="Rectangle 2" transform="translate(32.255 .802)" d="M0 0h5.326v35.724H0z"/><path id="Path_8" data-name="Path 8" d="M601.38-332.577h5.232v26.959h-5.232zm-.472-6.739a2.8 2.8 0 013.111-2.827 2.89 2.89 0 013.158 2.827 2.921 2.921 0 01-3.158 2.828 2.829 2.829 0 01-3.111-2.828" transform="translate(-558.987 342.143)"/><path id="Path_9" data-name="Path 9" d="M666.037-316.632c0-5.894-3.395-9.521-8.437-9.521-4.949 0-8.342 3.581-8.342 9.521 0 5.984 3.393 9.568 8.435 9.568 5 0 8.343-3.632 8.343-9.568m-16.638 8.34v5.093h-5.278v-35.679h5.28v13.994c1.509-3.675 5.279-5.749 9.519-5.749 6.647 0 12.4 4.714 12.4 14 0 9.329-5.749 14.092-12.347 14.092-4.242 0-8.06-2.123-9.568-5.753" transform="translate(-591.589 339.68)"/><path id="Path_10" data-name="Path 10" d="M770.688-304.206h5.279v4.524c1.037-2.875 3.864-5.514 9.472-4.712l-.565 5.089c-6.033-1.129-8.907 2.121-8.907 8.719v13.339h-5.279z" transform="translate(-687.082 313.772)"/><path id="Path_11" data-name="Path 11" d="M851.329-291.293c0-5.9-3.44-9.522-8.436-9.522-4.948 0-8.341 3.581-8.341 9.522 0 5.983 3.393 9.566 8.435 9.566 4.948 0 8.341-3.63 8.341-9.566m-22.056 0c0-9.287 5.655-14 12.347-14 4.244 0 8.013 2.072 9.568 5.8v-5.281h5.279v26.913h-5.279v-5.091c-1.508 3.63-5.324 5.753-9.519 5.753-6.694 0-12.4-4.763-12.4-14.092" transform="translate(-731.283 314.341)"/><path id="Path_12" data-name="Path 12" d="M954.952-308.917v-12.112h-3.912v-4.1h3.911v-7.144h5.326v7.144h7.966v4.1h-7.966v11.5c0 5.561 1.46 7.494 5.561 7.494a18.966 18.966 0 002.168-.233l.708 4.1a18.9 18.9 0 01-3.677.376c-6.928 0-10.087-2.875-10.087-11.122" transform="translate(-823.153 334.697)"/><path id="Path_13" data-name="Path 13" d="M1046.565-294.075c-.378-4.291-3.3-7.023-8.059-7.023-4.524 0-7.682 2.356-8.295 7.023zm-21.774 2.783c0-8.3 5.561-14 13.621-14 8.578 0 13.762 6.318 13.1 15.366h-21.442c.188 5.23 3.44 8.2 8.672 8.2 3.77 0 6.22-1.274 7.541-3.864l4.854.753c-2.17 5-6.41 7.541-12.492 7.541-8.388 0-13.855-5.561-13.855-14" transform="translate(-878.796 314.341)"/></g><path id="Path_14" data-name="Path 14" d="M352.384-332.326h-7.257l-15.517 15.66v-15.66h-5.469v34.116h5.469v-15.646l15.49 15.633h7.257l-17.317-17.039z" transform="translate(-324.141 334.737)"/></g></g></svg>